{"glyphs":{"U":{"ha":1389,"x_max":1075,"o":"m 293 935 q 354 990 293 990 l 414 990 q 459 976 443 990 q 475 935 475 961 l 475 365 q 505 247 475 296 q 583 172 535 197 q 685 147 631 147 q 787 172 739 147 q 865 247 835 197 q 894 365 894 296 l 894 935 q 954 990 894 990 l 1015 990 q 1075 935 1075 990 l 1075 307 q 1017 131 1075 204 q 869 19 960 57 q 685 -18 779 -18 q 499 19 589 -18 q 351 131 408 57 q 293 307 293 204 l 293 935 z ","x_min":293},"六":{"ha":1389,"x_max":1233,"o":"m 1178 882 q 1233 826 1233 882 l 1233 771 q 1178 715 1233 715 l 199 715 q 143 771 143 715 l 143 826 q 199 882 143 882 l 606 882 l 606 1000 q 661 1053 606 1053 l 717 1053 q 772 1000 772 1053 l 772 882 l 1178 882 m 471 492 q 506 446 506 475 q 500 418 506 431 l 354 88 q 308 51 339 51 q 281 58 297 51 l 231 81 q 196 126 196 97 q 201 154 196 142 l 347 485 q 393 521 363 521 q 421 514 404 521 l 471 492 m 1190 154 q 1196 126 1196 142 q 1161 81 1196 97 l 1111 58 q 1083 51 1094 51 q 1038 88 1053 51 l 892 418 q 886 446 886 431 q 921 492 886 475 l 971 514 q 999 521 988 521 q 1044 485 1029 521 l 1190 154 z ","x_min":143},"七":{"ha":1389,"x_max":1192,"o":"m 1136 661 q 1177 648 1163 663 q 1192 606 1192 633 l 1192 550 q 1136 494 1192 499 l 519 447 l 519 301 q 528 209 519 236 q 564 172 536 182 q 658 163 592 163 l 982 163 q 1038 107 1038 163 l 1038 51 q 982 -4 1038 -4 l 561 -4 q 406 49 460 -4 q 353 204 353 103 l 353 435 l 157 419 q 116 433 131 418 q 101 475 101 447 l 101 531 q 157 586 101 582 l 353 601 l 353 929 q 408 985 353 985 l 464 985 q 519 929 519 985 l 519 614 l 1136 661 z ","x_min":101},"二":{"ha":1389,"x_max":1228,"o":"m 1033 850 q 1089 794 1089 850 l 1089 739 q 1033 683 1089 683 l 333 683 q 278 739 278 683 l 278 794 q 333 850 278 850 l 1033 850 m 1172 310 q 1228 254 1228 310 l 1228 199 q 1172 143 1228 143 l 193 143 q 138 199 138 143 l 138 254 q 193 310 138 310 l 1172 310 z ","x_min":138},"r":{"ha":1389,"x_max":974,"o":"m 928 647 q 974 585 974 635 l 974 507 q 954 468 974 468 q 919 482 943 468 q 810 510 872 510 q 698 476 753 510 q 599 396 643 442 l 599 38 q 543 -18 599 -18 l 488 -18 q 432 38 432 -18 l 432 644 q 488 700 432 700 l 543 700 q 599 644 599 700 l 599 572 q 826 657 706 657 q 928 647 890 657 z ","x_min":432},"s":{"ha":1389,"x_max":961,"o":"m 353 128 q 349 149 349 140 q 361 177 349 165 q 394 193 374 189 l 433 200 q 447 201 438 201 q 474 194 463 201 q 501 169 486 186 q 570 122 526 142 q 667 103 614 103 q 735 116 706 103 q 779 147 764 129 q 794 176 794 164 q 760 232 794 208 q 647 294 725 256 q 608 313 615 308 q 526 353 596 318 q 419 431 456 388 q 383 525 383 474 q 458 682 383 625 q 664 739 533 739 q 839 703 769 739 q 940 601 908 668 q 946 578 946 590 q 933 549 946 561 q 899 536 921 538 l 838 529 q 802 535 817 528 q 769 558 788 542 q 664 603 722 603 q 579 578 608 603 q 550 525 550 553 q 565 486 550 503 q 611 452 581 469 q 718 399 642 435 l 751 382 q 863 325 821 350 q 933 263 904 300 q 961 176 961 226 q 881 24 961 81 q 668 -33 800 -33 q 353 128 417 -33 z ","x_min":349},"!":{"ha":833,"x_max":513,"o":"m 513 263 q 457 207 513 207 l 401 207 q 346 263 346 207 l 346 969 q 401 1025 346 1025 l 457 1025 q 513 969 513 1025 l 513 263 m 513 -8 q 457 -64 513 -64 l 401 -64 q 346 -8 346 -64 l 346 57 q 401 113 346 113 l 457 113 q 513 57 513 113 l 513 -8 z ","x_min":346},"Y":{"ha":1389,"x_max":1117,"o":"m 286 924 q 274 957 274 943 q 286 982 274 972 q 321 992 299 992 l 414 992 q 482 957 460 992 l 696 625 l 908 957 q 976 992 931 992 l 1069 992 q 1104 983 1092 992 q 1117 958 1117 974 q 1103 924 1117 944 l 783 464 l 779 464 l 779 35 q 724 -21 779 -21 l 668 -21 q 613 35 613 -21 l 613 464 l 286 924 z ","x_min":274},"L":{"ha":1389,"x_max":988,"o":"m 932 149 q 988 93 988 149 l 988 38 q 932 -18 988 -18 l 340 -18 q 285 38 285 -18 l 285 936 q 340 992 285 992 l 396 992 q 451 936 451 992 l 451 149 l 932 149 z ","x_min":285},"w":{"ha":1389,"x_max":1263,"o":"m 131 694 q 126 715 126 706 q 140 747 126 735 q 178 758 154 758 l 240 758 q 280 744 264 758 q 303 707 296 729 l 443 257 l 579 707 q 644 758 596 758 l 697 758 q 738 744 722 758 q 758 707 753 731 l 918 257 l 1067 707 q 1136 753 1081 750 l 1206 756 q 1248 747 1233 757 q 1263 717 1263 736 q 1257 693 1263 710 l 1014 40 q 978 -15 1001 4 q 928 -35 954 -35 q 878 -15 901 -35 q 839 40 854 4 l 671 451 l 517 40 q 481 -15 503 4 q 433 -35 458 -35 q 387 -15 408 -35 q 353 40 365 4 l 131 694 z ","x_min":126},"三":{"ha":1389,"x_max":1228,"o":"m 1089 1028 q 1144 972 1144 1028 l 1144 917 q 1089 861 1144 861 l 278 861 q 222 917 222 861 l 222 972 q 278 1028 222 1028 l 1089 1028 m 1033 624 q 1089 568 1089 624 l 1089 513 q 1033 457 1089 457 l 333 457 q 278 513 278 457 l 278 568 q 333 624 278 624 l 1033 624 m 1172 208 q 1228 153 1228 208 l 1228 97 q 1172 42 1228 42 l 193 42 q 138 97 138 42 l 138 153 q 193 208 138 208 l 1172 208 z ","x_min":138},"A":{"ha":1389,"x_max":1143,"o":"m 1138 39 q 1143 11 1143 26 q 1097 -28 1143 -28 l 1029 -28 q 964 11 981 -28 l 896 178 l 658 175 q 617 189 632 175 q 601 229 603 203 l 600 265 q 654 321 599 321 l 838 324 l 679 711 l 424 11 q 399 -18 417 -8 q 358 -28 382 -28 l 290 -28 q 244 11 244 -28 q 250 39 244 26 l 613 960 q 640 1001 622 986 q 678 1015 658 1015 q 717 1001 699 1015 q 746 960 735 988 l 1138 39 z ","x_min":244},"O":{"ha":1389,"x_max":1208,"o":"m 704 -37 q 449 32 564 -37 q 267 221 333 101 q 200 482 200 340 q 267 742 200 624 q 449 931 333 861 q 704 1000 564 1000 q 960 931 844 1000 q 1142 742 1075 861 q 1208 482 1208 624 q 1142 221 1208 340 q 960 32 1075 101 q 704 -37 844 -37 m 704 129 q 872 176 799 129 q 987 304 946 224 q 1028 482 1028 385 q 987 660 1028 579 q 872 787 946 740 q 704 833 799 833 q 536 787 610 833 q 422 660 463 740 q 381 482 381 579 q 422 304 381 385 q 536 176 463 224 q 704 129 610 129 z ","x_min":200},"B":{"ha":1389,"x_max":1121,"o":"m 981 532 q 1088 445 1056 500 q 1121 299 1121 390 q 1064 127 1121 200 q 902 15 1007 54 q 660 -25 797 -25 q 635 -24 650 -25 q 600 -25 621 -24 q 582 -24 588 -25 l 419 -25 l 413 -25 l 357 -25 q 301 31 301 -25 l 301 929 q 357 985 301 985 l 599 985 q 830 969 735 985 q 990 899 925 954 q 1054 732 1054 844 q 981 532 1054 606 m 660 149 q 878 187 801 153 q 954 299 954 221 q 864 415 954 371 q 601 460 774 460 q 544 515 544 460 l 544 564 q 604 619 544 619 q 780 631 719 619 q 864 666 840 642 q 888 736 888 690 q 819 800 888 782 q 601 818 750 818 l 599 818 l 599 818 l 468 817 l 468 149 l 660 149 z ","x_min":301},"P":{"ha":1389,"x_max":1090,"o":"m 631 992 q 858 976 765 992 q 1021 891 951 960 q 1090 678 1090 822 q 957 412 1090 479 q 631 344 824 344 q 575 400 575 344 l 575 456 q 590 496 575 482 q 633 511 606 510 q 808 531 746 515 q 897 582 871 547 q 924 678 924 617 q 901 772 924 742 q 819 813 879 801 q 631 825 758 825 l 469 825 l 469 38 q 414 -18 469 -18 l 358 -18 q 303 38 303 -18 l 303 936 q 358 992 303 992 l 631 992 z ","x_min":303},"九":{"ha":1389,"x_max":1286,"o":"m 1263 160 q 1286 113 1286 144 l 1286 56 q 1274 17 1286 32 q 1242 1 1263 1 q 1229 3 1233 1 q 1037 72 1132 18 q 906 189 942 126 q 853 348 867 256 q 832 665 840 440 l 521 665 q 432 328 482 494 q 338 58 382 161 q 274 17 319 17 l 201 17 q 167 26 179 17 q 154 51 154 36 q 163 82 154 65 q 263 339 211 179 q 353 665 315 499 l 164 665 q 108 721 108 665 l 108 776 q 164 832 108 832 l 386 832 q 408 1029 404 933 q 463 1086 411 1085 l 519 1088 q 562 1065 547 1089 q 574 1000 576 1042 q 553 832 567 921 l 954 832 q 995 817 981 832 q 1010 772 1010 801 q 1004 603 1004 689 q 1017 394 1004 478 q 1050 272 1029 310 q 1122 214 1064 247 l 1126 229 q 1176 274 1139 274 q 1193 271 1182 274 l 1232 260 q 1274 213 1274 247 q 1271 193 1274 207 l 1263 160 z ","x_min":108},"五":{"ha":1389,"x_max":1228,"o":"m 722 907 q 658 618 694 747 l 1022 618 q 1094 594 1069 618 q 1119 524 1119 569 q 1063 125 1119 301 l 1172 125 q 1228 69 1228 125 l 1228 14 q 1172 -42 1228 -42 l 193 -42 q 138 14 138 -42 l 138 69 q 193 125 138 125 l 296 125 q 432 451 369 279 l 269 451 q 214 507 214 451 l 214 563 q 269 618 214 618 l 488 618 q 556 907 538 781 l 193 907 q 138 963 138 907 l 138 1018 q 193 1074 138 1074 l 1172 1074 q 1228 1018 1228 1074 l 1228 963 q 1172 907 1228 907 l 722 907 m 608 451 q 482 125 551 274 l 894 125 q 935 264 921 186 q 951 451 950 342 l 608 451 z ","x_min":138},"Q":{"ha":1389,"x_max":1213,"o":"m 1171 100 q 1193 60 1193 81 q 1176 22 1193 42 l 1140 -21 q 1099 -44 1121 -44 q 1061 -28 1081 -44 l 981 42 q 708 -37 857 -37 q 453 32 568 -37 q 271 221 338 101 q 204 482 204 340 q 271 742 204 624 q 453 931 338 861 q 708 1000 568 1000 q 964 931 849 1000 q 1146 742 1079 861 q 1213 482 1213 624 q 1184 308 1213 390 q 1104 157 1156 225 l 1171 100 m 708 129 q 844 158 779 129 l 774 219 q 753 260 753 238 q 768 297 753 278 l 804 340 q 846 363 822 363 q 883 347 867 363 l 972 271 q 1032 482 1032 361 q 991 660 1032 579 q 876 787 950 740 q 708 833 803 833 q 540 787 614 833 q 426 660 467 740 q 385 482 385 579 q 426 304 385 385 q 540 176 467 224 q 708 129 614 129 z ","x_min":204},"四":{"ha":1389,"x_max":1249,"o":"m 1193 1029 q 1234 1014 1219 1029 q 1249 972 1249 999 l 1249 11 q 1234 -29 1249 -14 q 1193 -44 1219 -44 l 1138 -44 q 1083 -6 1094 -44 l 290 -11 q 238 -44 279 -44 l 182 -44 q 141 -29 156 -44 q 126 11 126 -14 l 126 972 q 141 1014 126 999 q 182 1029 156 1029 l 1193 1029 m 617 863 q 407 421 613 421 l 293 421 l 293 156 l 1082 160 l 1082 421 l 968 421 q 758 863 763 421 l 617 863 m 293 863 l 293 576 l 340 576 q 424 644 400 576 q 450 863 449 713 l 293 863 m 1082 863 l 925 863 q 951 644 926 713 q 1035 576 975 576 l 1082 576 l 1082 863 z ","x_min":126},"D":{"ha":1389,"x_max":1097,"o":"m 625 985 q 866 903 758 969 q 1035 728 974 836 q 1097 486 1097 619 q 1035 239 1097 351 q 865 56 972 126 q 625 -24 757 -14 l 615 -24 l 433 -25 l 426 -25 l 371 -25 q 315 31 315 -25 l 315 929 q 371 985 315 985 l 608 985 l 625 985 m 622 150 q 772 206 707 160 q 872 328 836 253 q 907 493 907 403 q 831 710 907 628 q 625 813 756 792 l 482 811 l 482 149 l 614 149 l 622 150 z ","x_min":315},"R":{"ha":1389,"x_max":1082,"o":"m 1076 61 q 1082 33 1082 49 q 1069 -3 1082 11 q 1033 -18 1057 -18 l 981 -18 q 946 -8 960 -18 q 928 13 932 1 q 865 160 907 67 q 751 404 822 254 q 656 400 725 400 l 592 400 q 535 456 535 400 l 535 504 q 594 560 535 560 q 783 572 718 560 q 878 617 849 583 q 908 719 908 650 q 824 804 908 782 q 593 826 739 826 l 458 825 l 458 39 q 403 -17 458 -17 l 347 -17 q 292 39 292 -17 l 292 938 q 347 993 292 993 l 590 993 q 815 978 713 993 q 996 903 917 963 q 1075 722 1075 843 q 1032 543 1075 617 q 900 447 989 469 q 1076 61 964 317 z ","x_min":292},"E":{"ha":1389,"x_max":1036,"o":"m 456 825 l 456 604 l 908 604 q 964 549 964 604 l 964 493 q 908 438 964 438 l 456 438 l 456 149 l 981 149 q 1036 93 1036 149 l 1036 38 q 981 -18 1036 -18 l 344 -18 q 289 38 289 -18 l 289 936 q 344 992 289 992 l 981 992 q 1036 936 1036 992 l 1036 881 q 981 825 1036 825 l 456 825 z ","x_min":289},"一":{"ha":1389,"x_max":1228,"o":"m 1172 521 q 1228 465 1228 521 l 1228 410 q 1172 354 1228 354 l 193 354 q 138 410 138 354 l 138 465 q 193 521 138 521 l 1172 521 z ","x_min":138},"a":{"ha":1389,"x_max":1069,"o":"m 1014 700 q 1069 644 1069 700 l 1069 38 q 1014 -18 1069 -18 l 958 -18 q 903 38 903 -18 l 903 76 q 794 11 856 35 q 667 -12 733 -12 q 488 34 569 -12 q 359 160 407 81 q 311 333 311 239 q 359 505 311 426 q 489 629 407 583 q 667 675 571 675 q 794 651 733 675 q 903 586 856 628 l 903 644 q 958 700 903 700 l 1014 700 m 683 154 q 776 178 733 154 q 844 244 819 203 q 869 333 869 285 q 844 419 869 379 q 776 484 819 460 q 683 508 733 508 q 589 485 632 508 q 520 421 546 461 q 494 333 494 381 q 519 243 494 285 q 588 178 544 201 q 683 154 632 154 z ","x_min":311},"八":{"ha":1389,"x_max":1214,"o":"m 1208 142 q 1214 115 1214 122 q 1181 68 1214 83 l 1128 44 q 1100 39 1115 39 q 1056 72 1068 39 l 793 807 q 788 835 788 819 q 821 881 788 867 l 874 904 q 901 911 890 911 q 946 876 933 911 l 1208 142 m 519 868 q 575 813 575 868 l 575 665 q 485 328 575 496 q 263 49 394 161 q 231 36 246 36 q 186 65 203 36 l 157 115 q 147 149 147 131 q 175 192 147 174 q 408 710 389 328 l 408 813 q 464 868 408 868 l 519 868 z ","x_min":147}}}
